<?xml version="1.0" standalone="no"?>
<!DOCTYPE svg PUBLIC "-//W3C//DTD SVG 20010904//EN"
 "http://www.w3.org/TR/2001/REC-SVG-20010904/DTD/svg10.dtd">
<svg version="1.0" xmlns="http://www.w3.org/2000/svg"
 width="260.000000pt" height="260.000000pt" viewBox="0 0 260.000000 260.000000"
 preserveAspectRatio="xMidYMid meet">
<metadata>
Created by potrace 1.11, written by Peter Selinger 2001-2013
</metadata>
<g transform="translate(0.000000,260.000000) scale(0.100000,-0.100000)"
fill="#000000" stroke="none">
<path d="M2112 2016 c-118 -39 -198 -136 -209 -255 l-5 -56 -542 -98 c-297
-55 -553 -101 -568 -104 -24 -5 -29 0 -48 46 -26 60 -101 133 -168 164 -37 17
-66 22 -137 22 -78 0 -97 -4 -147 -28 -72 -35 -140 -110 -168 -185 -31 -80
-25 -195 14 -270 34 -67 89 -122 152 -153 42 -21 63 -24 149 -24 120 0 172 21
246 96 l47 48 263 -103 264 -102 5 -70 c19 -234 240 -406 471 -366 221 38 364
223 346 447 -5 55 -15 87 -46 149 l-40 79 52 93 52 94 35 -8 c105 -21 228 14
289 84 61 68 76 110 76 209 0 76 -4 97 -25 138 -64 126 -227 196 -358 153z
m-155 -467 l32 -49 -55 -79 -54 -80 -43 19 c-190 84 -433 4 -527 -174 -14 -25
-30 -44 -37 -42 -6 3 -122 44 -257 92 l-246 88 0 37 0 37 93 16 c50 9 301 54
557 101 256 46 474 83 485 84 13 0 31 -17 52 -50z"/>
</g>
</svg>
